<svg xmlns="http://www.w3.org/2000/svg" enable-background="new 0 0 1024 1024" viewBox="0 0 1024 1024" id="sherwanis"><path d="M530.09,171.89c-0.15,0-0.31,0-0.46-0.01c-16.15-0.99-31.01-4.66-46.75-11.55c-20.96-9.17-33.38-20.78-37.98-35.47
			c-0.53-1.7-0.44-3.54,0.26-5.18c5.88-13.79,11.64-24.55,18.13-33.87c2.04-2.93,5.86-4.02,9.13-2.6c3.27,1.42,5.1,4.94,4.36,8.43
			c-0.93,4.4,1.2,10.44,5.18,14.68c4.45,4.75,11.06,7.94,17.45,10.8l1.63,0.73c7.08,3.15,14.4,6.42,20.76,11.85
			c10.03,8.58,15.93,21.57,15.79,34.77c-0.02,2.06-0.89,4.01-2.39,5.41C533.81,171.18,531.98,171.89,530.09,171.89z M460.13,122.84
			c3.94,9.13,13.6,17.11,28.76,23.74c11.06,4.84,21.6,7.9,32.56,9.42c-1.63-5.74-4.93-11.07-9.41-14.9
			c-4.71-4.02-10.73-6.71-17.12-9.55l-1.66-0.74c-7.78-3.48-15.91-7.45-22.26-14.23c-1.86-1.99-3.48-4.18-4.82-6.49
			C464.16,114,462.16,118.23,460.13,122.84z"></path><path d="M588.8 97.34c-41.44-11.09-80.87-11.12-117.18-.07l-4.37-14.35c39.04-11.88 81.23-11.9 125.43-.07L588.8 97.34zM326.54 191.62l-12.17-8.77c10.22-14.18 50.37-32.17 50.77-32.35 17.45-7.62 29.8-12.55 41.75-17.31 11.87-4.74 24.15-9.64 41.44-17.19l6 13.75c-17.51 7.65-29.9 12.59-41.89 17.37-11.84 4.72-24.08 9.61-41.31 17.13C358.11 169.95 332.05 183.97 326.54 191.62z"></path><rect width="97.73" height="15" x="309.01" y="438.34" transform="rotate(-75.12 357.871 445.828)"></rect><path d="M385.72,655.35c-1.74,0-3.44-0.61-4.8-1.73c-11.4-9.49-23.49-19.58-34.92-29.5c-37.37-32.44-76.08-69.85-106.08-123.51
			c-3.19-5.73-4.52-12.45-3.75-18.94c10.42-88.26,27.25-173.98,51.44-262.05c2.83-10.31,11.53-34.83,31.05-39.65
			c3.88-0.95,7.82,1.29,8.98,5.11c27.14,89.78,55.2,182.62,52.84,278.98c-0.4,16.28-1.68,33.21-3.92,51.66
			c9.12,12.47,18.5,26.25,29.26,42.06c7.38,10.85,15.75,23.15,25.22,36.75c1.84,2.64,1.79,6.15-0.12,8.74
			c-8.24,11.17-13.85,17.97-20.94,26.58c-4.94,5.99-10.55,12.79-18.39,22.67c-1.26,1.58-3.1,2.59-5.1,2.8
			C386.23,655.34,385.97,655.35,385.72,655.35z M315.87,197.99c-6.41,5.5-11.18,16.04-13.8,25.58
			c-23.99,87.34-40.67,172.34-51,259.84c-0.4,3.38,0.29,6.89,1.95,9.87c28.87,51.64,66.48,87.95,102.81,119.5
			c9.38,8.15,19.24,16.43,28.8,24.4c5.53-6.89,9.86-12.14,13.78-16.89c5.99-7.26,10.89-13.2,17.24-21.64
			c-8.26-11.91-15.63-22.75-22.23-32.44c-11.37-16.71-21.19-31.14-30.7-44c-1.15-1.55-1.65-3.48-1.41-5.39
			c2.4-19.11,3.77-36.48,4.17-53.13C367.71,372.75,341.83,283.97,315.87,197.99z"></path><path d="M362.71 522.2c-12.65-17.13-24.11-30.59-37.18-43.66l10.61-10.61c13.62 13.62 25.53 27.61 38.64 45.36L362.71 522.2zM530.09 171.89c-1.89 0-3.72-.71-5.11-2.01-1.5-1.4-2.37-3.36-2.39-5.41-.14-13.2 5.77-26.19 15.79-34.77 6.36-5.44 13.68-8.7 20.76-11.85l1.63-.73c6.39-2.86 13-6.05 17.45-10.8 3.98-4.25 6.11-10.28 5.18-14.68-.74-3.49 1.09-7.02 4.36-8.43 3.27-1.42 7.09-.33 9.13 2.6 6.49 9.32 12.25 20.08 18.13 33.87.7 1.64.79 3.48.26 5.18-4.59 14.7-17.02 26.3-37.98 35.47-15.74 6.89-30.59 10.56-46.75 11.55C530.4 171.88 530.25 171.89 530.09 171.89zM593.99 110.09c-1.34 2.31-2.96 4.5-4.82 6.49-6.35 6.78-14.48 10.75-22.26 14.23l-1.65.74c-6.38 2.84-12.41 5.53-17.12 9.55-4.48 3.83-7.78 9.16-9.41 14.9 10.96-1.52 21.5-4.58 32.56-9.42 15.16-6.64 24.82-14.61 28.76-23.74C598.03 118.23 596.02 114 593.99 110.09zM531.41 949.95c-1.2 0-2.4 0-3.6 0-80.6-.19-162.86-6.61-244.49-19.09-2.02-.31-3.83-1.43-5-3.1-1.18-1.67-1.62-3.75-1.22-5.76 19.6-99.82 39.21-197.4 63.58-293.67l2.98-11.71 14.54 3.69L355.21 632c-23.65 93.43-42.83 188.25-61.89 285.18 161.02 23.88 318.78 23.82 469.16-.14-14.38-95.22-33.71-191.08-57.5-285.04L702 620.29l14.54-3.69 2.98 11.71c24.51 96.84 44.32 195.67 58.88 293.77.39 2.62-.64 5.26-2.7 6.93l-.11.09c-1.01.82-2.22 1.36-3.5 1.57C694.46 943.47 613.5 949.95 531.41 949.95z"></path><path d="M491.66 942.97l-14.96-1.05c11.52-164.73 13.42-293.49 15.26-418.01 1.72-116.59 3.35-226.72 12.57-358.63l14.96 1.05c-9.19 131.49-10.82 241.42-12.53 357.8C505.11 648.86 503.21 777.83 491.66 942.97zM733.64 191.62c-5.51-7.65-31.57-21.67-44.61-27.37-17.22-7.52-29.46-12.4-41.3-17.13-11.98-4.78-24.38-9.73-41.89-17.37l6-13.75c17.29 7.55 29.57 12.45 41.44 17.19 11.95 4.77 24.31 9.7 41.75 17.31.4.18 40.56 18.17 50.77 32.35L733.64 191.62z"></path><rect width="15" height="97.73" x="694.81" y="396.97" transform="rotate(-14.88 702.234 445.801)"></rect><path d="M674.47,655.35c-0.26,0-0.51-0.01-0.77-0.04c-2.01-0.21-3.85-1.22-5.1-2.8c-7.84-9.88-13.44-16.68-18.38-22.67
			c-7.1-8.61-12.7-15.41-20.95-26.58c-1.91-2.59-1.96-6.1-0.12-8.74c9.47-13.6,17.83-25.9,25.22-36.75
			c10.76-15.81,20.15-29.6,29.27-42.07c-2.24-18.45-3.52-35.38-3.92-51.66c-2.36-96.36,25.7-189.2,52.84-278.98
			c1.15-3.82,5.1-6.07,8.98-5.11c19.52,4.82,28.22,29.33,31.05,39.65c24.19,88.08,41.01,173.79,51.44,262.06
			c0.77,6.49-0.56,13.21-3.75,18.93c-30,53.67-68.72,91.09-106.09,123.52c-11.42,9.92-23.04,19.61-34.92,29.5
			C677.91,654.74,676.21,655.35,674.47,655.35z M644.54,598.66c6.35,8.44,11.26,14.38,17.25,21.64c3.92,4.75,8.25,10,13.77,16.89
			c9.78-8.15,19.37-16.21,28.8-24.4c36.34-31.54,73.95-67.86,102.82-119.51c1.66-2.97,2.35-6.48,1.95-9.86
			c-10.34-87.51-27.02-172.5-51-259.85c-2.62-9.54-7.39-20.08-13.8-25.58c-25.96,85.98-51.84,174.76-49.61,265.69
			c0.41,16.65,1.77,34.02,4.17,53.13c0.24,1.91-0.26,3.84-1.41,5.39c-9.51,12.87-19.33,27.3-30.71,44.01
			C660.17,575.91,652.79,586.75,644.54,598.66z"></path><path d="M697.47 522.2l-12.07-8.91c13.11-17.75 25.02-31.74 38.64-45.36l10.61 10.61C721.58 491.61 710.12 505.08 697.47 522.2zM662.45 302.97c-34.4-5.37-49.26-6.88-83.7-8.53l.72-14.98c35.1 1.68 50.24 3.22 85.3 8.69L662.45 302.97zM543.59 234.68c-4.96 0-9-4.04-9-9s4.04-9 9-9 9 4.04 9 9S548.56 234.68 543.59 234.68zM543.59 219.68c-3.31 0-6 2.69-6 6s2.69 6 6 6 6-2.69 6-6S546.9 219.68 543.59 219.68zM540.09 318.71c-4.96 0-9-4.04-9-9s4.04-9 9-9 9 4.04 9 9S545.06 318.71 540.09 318.71zM540.09 303.71c-3.31 0-6 2.69-6 6s2.69 6 6 6 6-2.69 6-6S543.4 303.71 540.09 303.71zM537.09 402.74c-4.96 0-9-4.04-9-9s4.04-9 9-9 9 4.04 9 9S542.06 402.74 537.09 402.74zM537.09 387.74c-3.31 0-6 2.69-6 6s2.69 6 6 6 6-2.69 6-6S540.4 387.74 537.09 387.74zM535.59 486.77c-4.96 0-9-4.04-9-9s4.04-9 9-9 9 4.04 9 9S540.56 486.77 535.59 486.77zM535.59 471.77c-3.31 0-6 2.69-6 6s2.69 6 6 6 6-2.69 6-6S538.9 471.77 535.59 471.77zM534.09 570.8c-4.96 0-9-4.04-9-9s4.04-9 9-9 9 4.04 9 9S539.06 570.8 534.09 570.8zM534.09 555.8c-3.31 0-6 2.69-6 6s2.69 6 6 6 6-2.69 6-6S537.4 555.8 534.09 555.8z"></path></svg>